<svg viewBox="0 0 158.579 138.713" xmlns="http://www.w3.org/2000/svg"><style>:root&gt;svg{display:none}:root&gt;svg:target{display:block}.afil0,.afil1,.afil2{fill:none;fill-rule:nonzero}.afil0,.afil1{fill:#4e263b}.afil0{fill:#b03273}</style><svg xml:space="preserve" style="shape-rendering:geometricprecision;text-rendering:geometricprecision;image-rendering:optimizequality;fill-rule:evenodd;clip-rule:evenodd" viewBox="0 0 4195.74 3670.12" id="LogoPS" xmlns="http://www.w3.org/2000/svg"><defs><clipPath id="aid0" style="clip-rule:nonzero"><path d="M1647.96 3163.56c113.45 112.56 240.91 206.12 380.75 281.43 140.72 75.32 288.06 131.57 442.04 168.82 153.97 37.25 308.71 56.31 463.51 56.31 205.3-.82 385.73-30.62 542.99-89.39 156.43-57.96 288.06-138.26 394.82-240.85 106.75-102.65 187.05-220.2 241.72-352.65 54.61-133.27 81.95-274.8 81.95-424.62-.88-139.89-23.23-261.55-67.05-366.66-44.7-104.29-103.47-194.51-177.96-271.47-74.5-77.01-158.96-143.24-251.64-199.49-92.74-56.31-188.76-105.11-288.07-148.17-99.3-43.05-195.33-82.76-288.06-120.01-92.68-36.43-177.09-73.67-251.58-112.56-74.5-38.07-133.27-80.3-177.97-127.46-43.88-46.4-66.22-101.01-67.04-163.95 0-48.8 13.25-91.86 39.71-129.93 26.51-38.06 67.04-67.86 122.53-89.39 56.25-22.35 127.46-33.96 215.16-33.96 93.55.88 187.93 14.9 283.07 42.23 95.21 28.16 185.42 65.4 271.53 112.56 86.05 46.34 163.07 99.37 230.11 158.08l367.49-710.16c-103.47-91.03-215.22-166.35-336.87-225.94-121.66-59.6-247.48-103.48-379.1-132.45C3309.19 14.08 3176.8 0 3043.53 0c-187.05.82-359.21 26.52-514.83 77.84-156.44 51.27-292.23 124.94-407.26 220.14-115.9 95.2-204.47 209.41-268.18 342.68-62.93 133.26-95.2 282.25-96.02 446.96.82 138.26 23.17 259.91 67.87 365.03 43.87 104.29 102.65 195.32 177.14 273.16 74.5 77.78 158.91 145.65 251.64 203.6 92.68 57.95 188.7 109.28 288.01 154.8 99.36 44.69 195.39 86.93 288.06 125 93.56 38.89 177.15 78.6 251.64 118.37 74.5 39.71 134.09 82.76 177.97 129.92 43.87 48.04 66.22 102.65 67.04 164.71 0 47.22-14.07 88.57-41.41 125.82-27.27 38.07-67.86 67.05-122.47 89.39-54.67 21.53-122.54 32.32-203.66 33.14-106.76-1.7-212.69-19.88-318.63-56.31-105.11-36.42-204.48-82.76-296.33-139.07-92.74-55.43-172.16-112.57-239.21-172.16l-456.94 660.54z"/></clipPath><clipPath id="aid1" style="clip-rule:nonzero"><path d="M0 3610.52h869.1V2512.96H1475c172.99-.83 330.26-31.45 471.8-91.88 141.54-60.42 263.22-145.68 365.85-255.76 101.81-110.09 180.45-240.04 235.91-389.86 55.45-149.82 82.77-314.54 83.6-494.15-.83-179.62-28.15-343.51-83.6-492.5-55.46-148.99-134.1-278.11-235.91-386.55C2210.02 293 2088.34 209.4 1946.8 149.81c-141.54-59.6-298.81-89.4-471.8-90.22H0v3550.93zm869.1-1842.51V804.54h442.01c96.02.83 176.3 20.69 241.69 60.42 64.57 39.73 113.4 95.19 146.51 167.2 32.28 71.19 48.84 153.96 48.84 249.15 0 95.18-16.56 178.78-49.67 251.62s-83.6 129.96-150.64 172.17c-67.05 41.39-150.65 62.08-251.63 62.91H869.1z"/></clipPath><clipPath id="aid2" style="clip-rule:nonzero"><path d="m1913.11 136.3-1.03 2.15c-62.93 133.26-95.2 282.25-96.02 446.96.26 43.65 2.66 85.63 7.24 125.97a948.452 948.452 0 0 1 29.96-70.72c63.71-133.27 152.28-247.48 268.18-342.68 12.39-10.26 25.02-20.25 37.9-30.01-65.11-46.59-135.92-85.9-212.54-118.16-11.13-4.69-22.36-9.19-33.69-13.51z"/></clipPath><clipPath id="aid3" style="clip-rule:nonzero"><path d="M0 3610.52h869.1V2512.96H1475c172.99-.83 330.26-31.45 471.8-91.88 141.54-60.42 263.22-145.68 365.85-255.76 101.81-110.09 180.45-240.04 235.91-389.86 55.45-149.82 82.77-314.54 83.6-494.15-.83-179.62-28.15-343.51-83.6-492.5-55.46-148.99-134.1-278.11-235.91-386.55C2210.02 293 2088.34 209.4 1946.8 149.81c-141.54-59.6-298.81-89.4-471.8-90.22H0v3550.93zm869.1-1842.51V804.54h442.01c96.02.83 176.3 20.69 241.69 60.42 64.57 39.73 113.4 95.19 146.51 167.2 32.28 71.19 48.84 153.96 48.84 249.15 0 95.18-16.56 178.78-49.67 251.62s-83.6 129.96-150.64 172.17c-67.05 41.39-150.65 62.08-251.63 62.91H869.1z"/></clipPath></defs><g id="aСлой_x0020_1"><path class="afil0" d="M1647.96 3163.56c113.45 112.56 240.91 206.12 380.75 281.43 140.72 75.32 288.06 131.57 442.04 168.82 153.97 37.25 308.71 56.31 463.51 56.31 205.3-.82 385.73-30.62 542.99-89.39 156.43-57.96 288.06-138.26 394.82-240.85 106.75-102.65 187.05-220.2 241.72-352.65 54.61-133.27 81.95-274.8 81.95-424.62-.88-139.89-23.23-261.55-67.05-366.66-44.7-104.29-103.47-194.51-177.96-271.47-74.5-77.01-158.96-143.24-251.64-199.49-92.74-56.31-188.76-105.11-288.07-148.17-99.3-43.05-195.33-82.76-288.06-120.01-92.68-36.43-177.09-73.67-251.58-112.56-74.5-38.07-133.27-80.3-177.97-127.46-43.88-46.4-66.22-101.01-67.04-163.95 0-48.8 13.25-91.86 39.71-129.93 26.51-38.06 67.04-67.86 122.53-89.39 56.25-22.35 127.46-33.96 215.16-33.96 93.55.88 187.93 14.9 283.07 42.23 95.21 28.16 185.42 65.4 271.53 112.56 86.05 46.34 163.07 99.37 230.11 158.08l367.49-710.16c-103.47-91.03-215.22-166.35-336.87-225.94-121.66-59.6-247.48-103.48-379.1-132.45C3309.19 14.08 3176.8 0 3043.53 0c-187.05.82-359.21 26.52-514.83 77.84-156.44 51.27-292.23 124.94-407.26 220.14-115.9 95.2-204.47 209.41-268.18 342.68-62.93 133.26-95.2 282.25-96.02 446.96.82 138.26 23.17 259.91 67.87 365.03 43.87 104.29 102.65 195.32 177.14 273.16 74.5 77.78 158.91 145.65 251.64 203.6 92.68 57.95 188.7 109.28 288.01 154.8 99.36 44.69 195.39 86.93 288.06 125 93.56 38.89 177.15 78.6 251.64 118.37 74.5 39.71 134.09 82.76 177.97 129.92 43.87 48.04 66.22 102.65 67.04 164.71 0 47.22-14.07 88.57-41.41 125.82-27.27 38.07-67.86 67.05-122.47 89.39-54.67 21.53-122.54 32.32-203.66 33.14-106.76-1.7-212.69-19.88-318.63-56.31-105.11-36.42-204.48-82.76-296.33-139.07-92.74-55.43-172.16-112.57-239.21-172.16l-456.94 660.54z"/><g style="-webkit-clip-path:url(#aid0);clip-path:url(#aid0)"><g id="a_2160941005344"><path id="a1" class="afil1" d="M2597.15 2463.07c52.87-147.01 78.91-308.18 79.77-483.54-.88-179.61-28.16-343.49-83.65-492.48-55.43-148.99-134.09-278.1-235.86-386.55-102.65-109.28-224.36-192.87-365.9-252.46-141.54-59.6-298.8-89.4-471.78-90.22H44.74v1593.44l869.12-154.33v-694.16h441.98c96.02.82 176.33 20.7 241.73 60.41 64.52 39.77 113.38 95.2 146.46 167.24 32.32 71.15 48.87 153.91 48.87 249.11 0 64.37-7.57 123.43-22.71 177.45l826.96 306.09z"/></g></g><path class="afil2" d="M1647.96 3163.56c113.45 112.56 240.91 206.12 380.75 281.43 140.72 75.32 288.06 131.57 442.04 168.82 153.97 37.25 308.71 56.31 463.51 56.31 205.3-.82 385.73-30.62 542.99-89.39 156.43-57.96 288.06-138.26 394.82-240.85 106.75-102.65 187.05-220.2 241.72-352.65 54.61-133.27 81.95-274.8 81.95-424.62-.88-139.89-23.23-261.55-67.05-366.66-44.7-104.29-103.47-194.51-177.96-271.47-74.5-77.01-158.96-143.24-251.64-199.49-92.74-56.31-188.76-105.11-288.07-148.17-99.3-43.05-195.33-82.76-288.06-120.01-92.68-36.43-177.09-73.67-251.58-112.56-74.5-38.07-133.27-80.3-177.97-127.46-43.88-46.4-66.22-101.01-67.04-163.95 0-48.8 13.25-91.86 39.71-129.93 26.51-38.06 67.04-67.86 122.53-89.39 56.25-22.35 127.46-33.96 215.16-33.96 93.55.88 187.93 14.9 283.07 42.23 95.21 28.16 185.42 65.4 271.53 112.56 86.05 46.34 163.07 99.37 230.11 158.08l367.49-710.16c-103.47-91.03-215.22-166.35-336.87-225.94-121.66-59.6-247.48-103.48-379.1-132.45C3309.19 14.08 3176.8 0 3043.53 0c-187.05.82-359.21 26.52-514.83 77.84-156.44 51.27-292.23 124.94-407.26 220.14-115.9 95.2-204.47 209.41-268.18 342.68-62.93 133.26-95.2 282.25-96.02 446.96.82 138.26 23.17 259.91 67.87 365.03 43.87 104.29 102.65 195.32 177.14 273.16 74.5 77.78 158.91 145.65 251.64 203.6 92.68 57.95 188.7 109.28 288.01 154.8 99.36 44.69 195.39 86.93 288.06 125 93.56 38.89 177.15 78.6 251.64 118.37 74.5 39.71 134.09 82.76 177.97 129.92 43.87 48.04 66.22 102.65 67.04 164.71 0 47.22-14.07 88.57-41.41 125.82-27.27 38.07-67.86 67.05-122.47 89.39-54.67 21.53-122.54 32.32-203.66 33.14-106.76-1.7-212.69-19.88-318.63-56.31-105.11-36.42-204.48-82.76-296.33-139.07-92.74-55.43-172.16-112.57-239.21-172.16l-456.94 660.54z"/><path class="afil0" d="M0 3610.52h869.1V2512.96H1475c172.99-.83 330.26-31.45 471.8-91.88 141.54-60.42 263.22-145.68 365.85-255.76 101.81-110.09 180.45-240.04 235.91-389.86 55.45-149.82 82.77-314.54 83.6-494.15-.83-179.62-28.15-343.51-83.6-492.5-55.46-148.99-134.1-278.11-235.91-386.55C2210.02 293 2088.34 209.4 1946.8 149.81c-141.54-59.6-298.81-89.4-471.8-90.22H0v3550.93zm869.1-1842.51V804.54h442.01c96.02.83 176.3 20.69 241.69 60.42 64.57 39.73 113.4 95.19 146.51 167.2 32.28 71.19 48.84 153.96 48.84 249.15 0 95.18-16.56 178.78-49.67 251.62s-83.6 129.96-150.64 172.17c-67.05 41.39-150.65 62.08-251.63 62.91H869.1z"/><g style="-webkit-clip-path:url(#aid1);clip-path:url(#aid1)"><path class="afil1" d="m4012.91 290.18 201.88-390.12c-103.47-91.03-215.22-166.35-336.87-225.94-121.66-59.6-247.48-103.48-379.1-132.45-130.81-29.8-263.2-43.88-396.47-43.88-187.05.82-359.21 26.52-514.83 77.84-156.44 51.27-292.23 124.94-407.26 220.14-115.9 95.2-204.47 209.41-268.18 342.68-62.93 133.26-95.2 282.25-96.02 446.96.26 43.65 2.66 85.63 7.24 125.97a948.452 948.452 0 0 1 29.96-70.72c63.71-133.27 152.28-247.48 268.18-342.68 115.03-95.2 250.82-168.87 407.26-220.14C2684.32 26.52 2856.48.82 3043.53 0 3176.8 0 3309.19 14.08 3440 43.88c131.62 28.97 257.44 72.85 379.1 132.45 67.57 33.1 132.08 71.05 193.81 113.85z" id="a_2160941003840"/><g style="-webkit-clip-path:url(#aid2);clip-path:url(#aid2)"><path style="fill:none" d="M2818.02-278.21h379.24v445.38h-379.24z"/></g><path class="afil2" d="m4012.91 290.18 201.88-390.12c-103.47-91.03-215.22-166.35-336.87-225.94-121.66-59.6-247.48-103.48-379.1-132.45-130.81-29.8-263.2-43.88-396.47-43.88-187.05.82-359.21 26.52-514.83 77.84-156.44 51.27-292.23 124.94-407.26 220.14-115.9 95.2-204.47 209.41-268.18 342.68-62.93 133.26-95.2 282.25-96.02 446.96.26 43.65 2.66 85.63 7.24 125.97a948.452 948.452 0 0 1 29.96-70.72c63.71-133.27 152.28-247.48 268.18-342.68 115.03-95.2 250.82-168.87 407.26-220.14C2684.32 26.52 2856.48.82 3043.53 0 3176.8 0 3309.19 14.08 3440 43.88c131.62 28.97 257.44 72.85 379.1 132.45 67.57 33.1 132.08 71.05 193.81 113.85z" style="-webkit-clip-path:url(#aid3);clip-path:url(#aid3)"/></g><path class="afil2" d="M0 3610.52h869.1V2512.96H1475c172.99-.83 330.26-31.45 471.8-91.88 141.54-60.42 263.22-145.68 365.85-255.76 101.81-110.09 180.45-240.04 235.91-389.86 55.45-149.82 82.77-314.54 83.6-494.15-.83-179.62-28.15-343.51-83.6-492.5-55.46-148.99-134.1-278.11-235.91-386.55C2210.02 293 2088.34 209.4 1946.8 149.81c-141.54-59.6-298.81-89.4-471.8-90.22H0v3550.93zm869.1-1842.51V804.54h442.01c96.02.83 176.3 20.69 241.69 60.42 64.57 39.73 113.4 95.19 146.51 167.2 32.28 71.19 48.84 153.96 48.84 249.15 0 95.18-16.56 178.78-49.67 251.62s-83.6 129.96-150.64 172.17c-67.05 41.39-150.65 62.08-251.63 62.91H869.1z"/></g></svg><svg xml:space="preserve" style="shape-rendering:geometricprecision;text-rendering:geometricprecision;image-rendering:optimizequality;fill-rule:evenodd;clip-rule:evenodd" viewBox="0 0 1985.84 1985.84" id="Matrix" xmlns="http://www.w3.org/2000/svg"><path d="M0 0h397.17v397.17H0V0zm1588.67 1588.67h397.17v397.17h-397.17v-397.17zm0-794.34h397.17v397.17h-397.17V794.33zm0-794.34h397.17v397.17h-397.17V-.01zM794.33 1588.66h397.17v397.17H794.33v-397.17zm0-794.34h397.17v397.17H794.33V794.32zm0-794.34h397.17v397.17H794.33V-.02zM-.01 1588.65h397.17v397.17H-.01v-397.17zm0-794.34h397.17v397.17H-.01V794.31z" style="fill:#fff"/></svg></svg>