<?xml version="1.0" encoding="UTF-8"?>
<!DOCTYPE svg PUBLIC "-//W3C//DTD SVG 1.1//EN" "http://www.w3.org/Graphics/SVG/1.1/DTD/svg11.dtd">
<!-- Creator: CorelDRAW 2018 (64-Bit) -->
<svg xmlns="http://www.w3.org/2000/svg" xml:space="preserve" width="41.9574mm" height="36.7012mm" version="1.1" style="shape-rendering:geometricPrecision; text-rendering:geometricPrecision; image-rendering:optimizeQuality; fill-rule:evenodd; clip-rule:evenodd"
viewBox="0 0 4195.74 3670.12"
 xmlns:xlink="http://www.w3.org/1999/xlink">
 <defs>
  <style type="text/css">
   <![CDATA[
    .fil3 {fill:none}
    .fil2 {fill:none;fill-rule:nonzero}
    .fil1 {fill:#4E263B;fill-rule:nonzero}
    .fil0 {fill:#B03273;fill-rule:nonzero}
   ]]>
  </style>
   <clipPath id="id0" style="clip-rule:nonzero">
    <path d="M1647.96 3163.56c113.45,112.56 240.91,206.12 380.75,281.43 140.72,75.32 288.06,131.57 442.04,168.82 153.97,37.25 308.71,56.31 463.51,56.31 205.3,-0.82 385.73,-30.62 542.99,-89.39 156.43,-57.96 288.06,-138.26 394.82,-240.85 106.75,-102.65 187.05,-220.2 241.72,-352.65 54.61,-133.27 81.95,-274.8 81.95,-424.62 -0.88,-139.89 -23.23,-261.55 -67.05,-366.66 -44.7,-104.29 -103.47,-194.51 -177.96,-271.47 -74.5,-77.01 -158.96,-143.24 -251.64,-199.49 -92.74,-56.31 -188.76,-105.11 -288.07,-148.17 -99.3,-43.05 -195.33,-82.76 -288.06,-120.01 -92.68,-36.43 -177.09,-73.67 -251.58,-112.56 -74.5,-38.07 -133.27,-80.3 -177.97,-127.46 -43.88,-46.4 -66.22,-101.01 -67.04,-163.95 0,-48.8 13.25,-91.86 39.71,-129.93 26.51,-38.06 67.04,-67.86 122.53,-89.39 56.25,-22.35 127.46,-33.96 215.16,-33.96 93.55,0.88 187.93,14.9 283.07,42.23 95.21,28.16 185.42,65.4 271.53,112.56 86.05,46.34 163.07,99.37 230.11,158.08l367.49 -710.16c-103.47,-91.03 -215.22,-166.35 -336.87,-225.94 -121.66,-59.6 -247.48,-103.48 -379.1,-132.45 -130.81,-29.8 -263.2,-43.88 -396.47,-43.88 -187.05,0.82 -359.21,26.52 -514.83,77.84 -156.44,51.27 -292.23,124.94 -407.26,220.14 -115.9,95.2 -204.47,209.41 -268.18,342.68 -62.93,133.26 -95.2,282.25 -96.02,446.96 0.82,138.26 23.17,259.91 67.87,365.03 43.87,104.29 102.65,195.32 177.14,273.16 74.5,77.78 158.91,145.65 251.64,203.6 92.68,57.95 188.7,109.28 288.01,154.8 99.36,44.69 195.39,86.93 288.06,125 93.56,38.89 177.15,78.6 251.64,118.37 74.5,39.71 134.09,82.76 177.97,129.92 43.87,48.04 66.22,102.65 67.04,164.71 0,47.22 -14.07,88.57 -41.41,125.82 -27.27,38.07 -67.86,67.05 -122.47,89.39 -54.67,21.53 -122.54,32.32 -203.66,33.14 -106.76,-1.7 -212.69,-19.88 -318.63,-56.31 -105.11,-36.42 -204.48,-82.76 -296.33,-139.07 -92.74,-55.43 -172.16,-112.57 -239.21,-172.16l-456.94 660.54z"/>
   </clipPath>
   <clipPath id="id1" style="clip-rule:nonzero">
    <path d="M-0 3610.52l869.1 0 0 -1097.56 605.9 0c172.99,-0.83 330.26,-31.45 471.8,-91.88 141.54,-60.42 263.22,-145.68 365.85,-255.76 101.81,-110.09 180.45,-240.04 235.91,-389.86 55.45,-149.82 82.77,-314.54 83.6,-494.15 -0.83,-179.62 -28.15,-343.51 -83.6,-492.5 -55.46,-148.99 -134.1,-278.11 -235.91,-386.55 -102.63,-109.26 -224.31,-192.86 -365.85,-252.45 -141.54,-59.6 -298.81,-89.4 -471.8,-90.22l-1475 0 0 3550.93zm869.1 -1842.51l0 -963.47 442.01 0c96.02,0.83 176.3,20.69 241.69,60.42 64.57,39.73 113.4,95.19 146.51,167.2 32.28,71.19 48.84,153.96 48.84,249.15 0,95.18 -16.56,178.78 -49.67,251.62 -33.11,72.84 -83.6,129.96 -150.64,172.17 -67.05,41.39 -150.65,62.08 -251.63,62.91l-427.11 0z"/>
   </clipPath>
    <clipPath id="id2" style="clip-rule:nonzero">
     <path d="M1913.11 136.3l-1.03 2.15c-62.93,133.26 -95.2,282.25 -96.02,446.96 0.26,43.65 2.66,85.63 7.24,125.97 9.06,-24.05 19.05,-47.62 29.96,-70.72 63.71,-133.27 152.28,-247.48 268.18,-342.68 12.39,-10.26 25.02,-20.25 37.9,-30.01 -65.11,-46.59 -135.92,-85.9 -212.54,-118.16 -11.13,-4.69 -22.36,-9.19 -33.69,-13.51z"/>
    </clipPath>
    <clipPath id="id3" style="clip-rule:nonzero">
     <path d="M-0 3610.52l869.1 0 0 -1097.56 605.9 0c172.99,-0.83 330.26,-31.45 471.8,-91.88 141.54,-60.42 263.22,-145.68 365.85,-255.76 101.81,-110.09 180.45,-240.04 235.91,-389.86 55.45,-149.82 82.77,-314.54 83.6,-494.15 -0.83,-179.62 -28.15,-343.51 -83.6,-492.5 -55.46,-148.99 -134.1,-278.11 -235.91,-386.55 -102.63,-109.26 -224.31,-192.86 -365.85,-252.45 -141.54,-59.6 -298.81,-89.4 -471.8,-90.22l-1475 0 0 3550.93zm869.1 -1842.51l0 -963.47 442.01 0c96.02,0.83 176.3,20.69 241.69,60.42 64.57,39.73 113.4,95.19 146.51,167.2 32.28,71.19 48.84,153.96 48.84,249.15 0,95.18 -16.56,178.78 -49.67,251.62 -33.11,72.84 -83.6,129.96 -150.64,172.17 -67.05,41.39 -150.65,62.08 -251.63,62.91l-427.11 0z"/>
    </clipPath>
 </defs>
 <g id="Слой_x0020_1">
  <metadata id="CorelCorpID_0Corel-Layer"/>
  <path class="fil0" d="M1647.96 3163.56c113.45,112.56 240.91,206.12 380.75,281.43 140.72,75.32 288.06,131.57 442.04,168.82 153.97,37.25 308.71,56.31 463.51,56.31 205.3,-0.82 385.73,-30.62 542.99,-89.39 156.43,-57.96 288.06,-138.26 394.82,-240.85 106.75,-102.65 187.05,-220.2 241.72,-352.65 54.61,-133.27 81.95,-274.8 81.95,-424.62 -0.88,-139.89 -23.23,-261.55 -67.05,-366.66 -44.7,-104.29 -103.47,-194.51 -177.96,-271.47 -74.5,-77.01 -158.96,-143.24 -251.64,-199.49 -92.74,-56.31 -188.76,-105.11 -288.07,-148.17 -99.3,-43.05 -195.33,-82.76 -288.06,-120.01 -92.68,-36.43 -177.09,-73.67 -251.58,-112.56 -74.5,-38.07 -133.27,-80.3 -177.97,-127.46 -43.88,-46.4 -66.22,-101.01 -67.04,-163.95 0,-48.8 13.25,-91.86 39.71,-129.93 26.51,-38.06 67.04,-67.86 122.53,-89.39 56.25,-22.35 127.46,-33.96 215.16,-33.96 93.55,0.88 187.93,14.9 283.07,42.23 95.21,28.16 185.42,65.4 271.53,112.56 86.05,46.34 163.07,99.37 230.11,158.08l367.49 -710.16c-103.47,-91.03 -215.22,-166.35 -336.87,-225.94 -121.66,-59.6 -247.48,-103.48 -379.1,-132.45 -130.81,-29.8 -263.2,-43.88 -396.47,-43.88 -187.05,0.82 -359.21,26.52 -514.83,77.84 -156.44,51.27 -292.23,124.94 -407.26,220.14 -115.9,95.2 -204.47,209.41 -268.18,342.68 -62.93,133.26 -95.2,282.25 -96.02,446.96 0.82,138.26 23.17,259.91 67.87,365.03 43.87,104.29 102.65,195.32 177.14,273.16 74.5,77.78 158.91,145.65 251.64,203.6 92.68,57.95 188.7,109.28 288.01,154.8 99.36,44.69 195.39,86.93 288.06,125 93.56,38.89 177.15,78.6 251.64,118.37 74.5,39.71 134.09,82.76 177.97,129.92 43.87,48.04 66.22,102.65 67.04,164.71 0,47.22 -14.07,88.57 -41.41,125.82 -27.27,38.07 -67.86,67.05 -122.47,89.39 -54.67,21.53 -122.54,32.32 -203.66,33.14 -106.76,-1.7 -212.69,-19.88 -318.63,-56.31 -105.11,-36.42 -204.48,-82.76 -296.33,-139.07 -92.74,-55.43 -172.16,-112.57 -239.21,-172.16l-456.94 660.54z"/>
  <g style="clip-path:url(#id0)">
   <g id="_2160941005344">
    <path id="1" class="fil1" d="M2597.15 2463.07c52.87,-147.01 78.91,-308.18 79.77,-483.54 -0.88,-179.61 -28.16,-343.49 -83.65,-492.48 -55.43,-148.99 -134.09,-278.1 -235.86,-386.55 -102.65,-109.28 -224.36,-192.87 -365.9,-252.46 -141.54,-59.6 -298.8,-89.4 -471.78,-90.22l-1474.99 0 0 1593.44 869.12 -154.33 0 -694.16 441.98 0c96.02,0.82 176.33,20.7 241.73,60.41 64.52,39.77 113.38,95.2 146.46,167.24 32.32,71.15 48.87,153.91 48.87,249.11 0,64.37 -7.57,123.43 -22.71,177.45l826.96 306.09z"/>
   </g>
  </g>
  <path class="fil2" d="M1647.96 3163.56c113.45,112.56 240.91,206.12 380.75,281.43 140.72,75.32 288.06,131.57 442.04,168.82 153.97,37.25 308.71,56.31 463.51,56.31 205.3,-0.82 385.73,-30.62 542.99,-89.39 156.43,-57.96 288.06,-138.26 394.82,-240.85 106.75,-102.65 187.05,-220.2 241.72,-352.65 54.61,-133.27 81.95,-274.8 81.95,-424.62 -0.88,-139.89 -23.23,-261.55 -67.05,-366.66 -44.7,-104.29 -103.47,-194.51 -177.96,-271.47 -74.5,-77.01 -158.96,-143.24 -251.64,-199.49 -92.74,-56.31 -188.76,-105.11 -288.07,-148.17 -99.3,-43.05 -195.33,-82.76 -288.06,-120.01 -92.68,-36.43 -177.09,-73.67 -251.58,-112.56 -74.5,-38.07 -133.27,-80.3 -177.97,-127.46 -43.88,-46.4 -66.22,-101.01 -67.04,-163.95 0,-48.8 13.25,-91.86 39.71,-129.93 26.51,-38.06 67.04,-67.86 122.53,-89.39 56.25,-22.35 127.46,-33.96 215.16,-33.96 93.55,0.88 187.93,14.9 283.07,42.23 95.21,28.16 185.42,65.4 271.53,112.56 86.05,46.34 163.07,99.37 230.11,158.08l367.49 -710.16c-103.47,-91.03 -215.22,-166.35 -336.87,-225.94 -121.66,-59.6 -247.48,-103.48 -379.1,-132.45 -130.81,-29.8 -263.2,-43.88 -396.47,-43.88 -187.05,0.82 -359.21,26.52 -514.83,77.84 -156.44,51.27 -292.23,124.94 -407.26,220.14 -115.9,95.2 -204.47,209.41 -268.18,342.68 -62.93,133.26 -95.2,282.25 -96.02,446.96 0.82,138.26 23.17,259.91 67.87,365.03 43.87,104.29 102.65,195.32 177.14,273.16 74.5,77.78 158.91,145.65 251.64,203.6 92.68,57.95 188.7,109.28 288.01,154.8 99.36,44.69 195.39,86.93 288.06,125 93.56,38.89 177.15,78.6 251.64,118.37 74.5,39.71 134.09,82.76 177.97,129.92 43.87,48.04 66.22,102.65 67.04,164.71 0,47.22 -14.07,88.57 -41.41,125.82 -27.27,38.07 -67.86,67.05 -122.47,89.39 -54.67,21.53 -122.54,32.32 -203.66,33.14 -106.76,-1.7 -212.69,-19.88 -318.63,-56.31 -105.11,-36.42 -204.48,-82.76 -296.33,-139.07 -92.74,-55.43 -172.16,-112.57 -239.21,-172.16l-456.94 660.54z"/>
  <path class="fil0" d="M-0 3610.52l869.1 0 0 -1097.56 605.9 0c172.99,-0.83 330.26,-31.45 471.8,-91.88 141.54,-60.42 263.22,-145.68 365.85,-255.76 101.81,-110.09 180.45,-240.04 235.91,-389.86 55.45,-149.82 82.77,-314.54 83.6,-494.15 -0.83,-179.62 -28.15,-343.51 -83.6,-492.5 -55.46,-148.99 -134.1,-278.11 -235.91,-386.55 -102.63,-109.26 -224.31,-192.86 -365.85,-252.45 -141.54,-59.6 -298.81,-89.4 -471.8,-90.22l-1475 0 0 3550.93zm869.1 -1842.51l0 -963.47 442.01 0c96.02,0.83 176.3,20.69 241.69,60.42 64.57,39.73 113.4,95.19 146.51,167.2 32.28,71.19 48.84,153.96 48.84,249.15 0,95.18 -16.56,178.78 -49.67,251.62 -33.11,72.84 -83.6,129.96 -150.64,172.17 -67.05,41.39 -150.65,62.08 -251.63,62.91l-427.11 0z"/>
  <g style="clip-path:url(#id1)">
   <g id="_2160941003840">
    <path id="1" class="fil1" d="M4012.91 290.18l201.88 -390.12c-103.47,-91.03 -215.22,-166.35 -336.87,-225.94 -121.66,-59.6 -247.48,-103.48 -379.1,-132.45 -130.81,-29.8 -263.2,-43.88 -396.47,-43.88 -187.05,0.82 -359.21,26.52 -514.83,77.84 -156.44,51.27 -292.23,124.94 -407.26,220.14 -115.9,95.2 -204.47,209.41 -268.18,342.68 -62.93,133.26 -95.2,282.25 -96.02,446.96 0.26,43.65 2.66,85.63 7.24,125.97 9.06,-24.05 19.05,-47.62 29.96,-70.72 63.71,-133.27 152.28,-247.48 268.18,-342.68 115.03,-95.2 250.82,-168.87 407.26,-220.14 155.62,-51.32 327.78,-77.02 514.83,-77.84 133.27,0 265.66,14.08 396.47,43.88 131.62,28.97 257.44,72.85 379.1,132.45 67.57,33.1 132.08,71.05 193.81,113.85z"/>
   </g>
   <g style="clip-path:url(#id2)">
    <g>
     <rect class="fil3" x="2818.02" y="-278.21" width="379.24" height="445.38"/>
    </g>
   </g>
   <g style="clip-path:url(#id3)">
    <path class="fil2" d="M4012.91 290.18l201.88 -390.12c-103.47,-91.03 -215.22,-166.35 -336.87,-225.94 -121.66,-59.6 -247.48,-103.48 -379.1,-132.45 -130.81,-29.8 -263.2,-43.88 -396.47,-43.88 -187.05,0.82 -359.21,26.52 -514.83,77.84 -156.44,51.27 -292.23,124.94 -407.26,220.14 -115.9,95.2 -204.47,209.41 -268.18,342.68 -62.93,133.26 -95.2,282.25 -96.02,446.96 0.26,43.65 2.66,85.63 7.24,125.97 9.06,-24.05 19.05,-47.62 29.96,-70.72 63.71,-133.27 152.28,-247.48 268.18,-342.68 115.03,-95.2 250.82,-168.87 407.26,-220.14 155.62,-51.32 327.78,-77.02 514.83,-77.84 133.27,0 265.66,14.08 396.47,43.88 131.62,28.97 257.44,72.85 379.1,132.45 67.57,33.1 132.08,71.05 193.81,113.85z"/>
   </g>
  </g>
  <path class="fil2" d="M-0 3610.52l869.1 0 0 -1097.56 605.9 0c172.99,-0.83 330.26,-31.45 471.8,-91.88 141.54,-60.42 263.22,-145.68 365.85,-255.76 101.81,-110.09 180.45,-240.04 235.91,-389.86 55.45,-149.82 82.77,-314.54 83.6,-494.15 -0.83,-179.62 -28.15,-343.51 -83.6,-492.5 -55.46,-148.99 -134.1,-278.11 -235.91,-386.55 -102.63,-109.26 -224.31,-192.86 -365.85,-252.45 -141.54,-59.6 -298.81,-89.4 -471.8,-90.22l-1475 0 0 3550.93zm869.1 -1842.51l0 -963.47 442.01 0c96.02,0.83 176.3,20.69 241.69,60.42 64.57,39.73 113.4,95.19 146.51,167.2 32.28,71.19 48.84,153.96 48.84,249.15 0,95.18 -16.56,178.78 -49.67,251.62 -33.11,72.84 -83.6,129.96 -150.64,172.17 -67.05,41.39 -150.65,62.08 -251.63,62.91l-427.11 0z"/>
 </g>
</svg>
